<svg xmlns="http://www.w3.org/2000/svg" xmlns:xlink="http://www.w3.org/1999/xlink" viewBox="0 0 893.57 519.38"><defs><style>.cls-1{fill:none;}.cls-2,.cls-7{fill:#fff;}.cls-3{fill:#d1d1d1;}.cls-4{fill:#231f20;}.cls-5{clip-path:url(#clip-path);}.cls-6{fill:#f5a200;}.cls-7{fill-rule:evenodd;}</style><clipPath id="clip-path" transform="translate(0 -3.62)"><rect class="cls-1" width="426.09" height="536.12"/></clipPath></defs><g id="Layer_2" data-name="Layer 2"><g id="Layer_1-2" data-name="Layer 1"><path id="background" class="cls-2" d="M893.47,436.43H461.07V4.13h432.4Z" transform="translate(0 -3.62)"/><path id="background_letters" data-name="background letters" class="cls-3" d="M500.87,4.13l-16.7,12.6L512.27,54l21.9-16.5-6-8-12.1,9.1-5.5-7.3,9.5-7.1-6-8-9.5,7.2-4.8-6.3,11.5-8.7-3.2-4.2Zm14.6,0c1.2,3.6,3.6,7.8,7.3,12.7,11.1,14.7,16.4,17.9,26.2,10.5a12.75,12.75,0,0,0,5.2-8l2.9.9,5-3.8-9.2-12.3h-17.6l-1,.8,5.2,7,2.5-1.8,2.8,3.7c1.7,2.2,1.3,3.9-.2,5.1s-3.3,1.1-5-1.2l-10.1-13.6Zm46.5,0,6,8,9.8-7.4-.4-.5Zm46.2,0c-2.2,5.5.3,12.1,7.5,21.8,11.1,14.7,16.4,17.9,26.2,10.5a12.75,12.75,0,0,0,5.2-8l2.9.9,5-3.8-15.6-20.8L627.07,14l5.2,7,2.5-1.9,2.8,3.7c1.7,2.2,1.3,3.9-.2,5.1s-3.2,1-4.9-1.2l-12.8-17c-1.7-2.2-1.3-3.9.2-5a4.05,4.05,0,0,1,.9-.5Zm14.5,0a4.32,4.32,0,0,1,2.1,1.7l1.7,2.2,5-3.8h-8.8Zm25.3,0,12.8,17,9.8-7.4-7.2-9.6Zm61.8,0c-1,.6-2,1.2-3,1.9-9.5,7.2-9,14.9,1.6,29,11.1,14.7,16.4,17.9,26.2,10.5a12.75,12.75,0,0,0,5.2-8l2.9.9,5-3.8-15.4-20.8L720,23.13l5.2,7,2.4-1.9,2.8,3.6c1.7,2.2,1.3,3.9-.2,5.1s-3.2,1-4.9-1.2l-12.9-17.1c-1.7-2.2-1.3-3.9.2-5s3.2-1.1,4.9,1.2l1.6,2.2,9.8-7.4a24.19,24.19,0,0,0-5.1-5.5Zm24.1,0,19.7,26.1,9.9-7.4-14.1-18.7Zm43.8,0,3.8,5.1,6.8-5.1Zm42.2,0,26.6,35.2,9.8-7.4-21-27.8Zm43.8,0,10.7,14.1,9.5-7.2-5.3-7Zm-265.3,5.6-21.3,16.1,28.1,37.3,21.9-16.5-6-8L609,47.73l-5.5-7.3,9.5-7.2-6-8-9.5,7.1-4.8-6.3,11.5-8.7ZM810.27,11a18.42,18.42,0,0,0-10.5,4c-9.5,7.1-9,14.9,1.6,29,11.1,14.7,16.4,17.9,26.2,10.5a13.32,13.32,0,0,0,5.3-8l2.9.9,5-3.8-15.7-20.7-12.3,9.3,5.2,7,2.4-1.9,2.8,3.7c1.7,2.2,1.3,3.9-.2,5.1s-3.2,1.1-4.9-1.2l-12.9-17c-1.7-2.2-1.3-3.9.2-5s3.2-1.1,4.9,1.1l1.6,2.2,9.8-7.4c-2.3-3-3.8-4.8-5.5-5.8A9.35,9.35,0,0,0,810.27,11Zm-119.1,7.8-21.3,16L698,72.13l21.9-16.5-6-8-12.1,9.1-5.5-7.3,9.5-7.2-6-8-9.5,7.2-4.8-6.3,11.5-8.6Zm202.3,4.8-.9.6c-9.2,7-8.9,14.6.9,28Zm-413.5,0c-3.4-.2-6.9,1.4-10.9,4.4l-8,6.1v6.3l25.1,33.3,9.5-7.1-11-14.5,1.7-1.3c9-6.8,9.9-11.8,3.4-20.4C486.57,25.93,483.37,23.83,480,23.63Zm304,4.2-21.3,16.1,28.1,37.3,21.9-16.5-6-8-12.1,9.1-5.5-7.3,9.5-7.2-6-8-9.5,7.1-4.8-6.3,11.5-8.7Zm-211.1,4.9c-3.4-.2-6.9,1.4-10.9,4.4l-11.1,8.3L579,82.73l9.5-7.2-11-14.5,1.7-1.3c9-6.8,9.9-11.8,3.5-20.4C579.37,35,576.17,32.93,572.87,32.73ZM477,34c1.2.1,2.2,1,3.5,2.8,3.1,4.2,2.2,5.8-1,8.2l-6.8-9c1.8-1.4,3.1-2.1,4.3-2Zm399.9,2.9L855.57,53l28.1,37.3,9.8-7.4V70.43l-6,4.5-5.5-7.3,9.5-7.2-6-8-9.5,7.1-4.8-6.3,11.5-8.7Zm-211.2,4.9c-3.4-.2-6.9,1.4-10.9,4.4l-11.1,8.3,28.2,37.3,9.5-7.2-11-14.5,1.7-1.3c9-6.8,9.9-11.8,3.4-20.4C672.17,44.13,669.07,42,665.67,41.83Zm-95.9,1.3c1.2.1,2.2,1,3.5,2.8,3.1,4.2,2.2,5.8-1,8.2l-6.8-9C567.27,43.73,568.57,43,569.77,43.13Zm188.8,7.8c-3.4-.2-6.9,1.4-10.9,4.4l-11.1,8.3,28.1,37.3,9.5-7.2-11-14.5,1.7-1.3c9-6.8,10-11.8,3.5-20.4C765.07,53.13,761.87,51.13,758.57,50.93Zm-96,1.3c1.2.1,2.2,1,3.5,2.8,3.1,4.2,2.2,5.8-1,8.2l-6.8-9C660.17,52.73,661.47,52.13,662.57,52.23Zm-129.8,6.9-9.8,7.4,28.1,37.3,9.8-7.4Zm318.6.9c-3.4-.2-6.9,1.4-10.9,4.4l-11,8.3,28.1,37.3,9.5-7.2-11-14.5,1.7-1.3c9-6.8,10-11.8,3.5-20.4C857.87,62.33,854.67,60.23,851.37,60Zm-95.9,1.3c1.2.1,2.2,1,3.5,2.8,3.1,4.1,2.2,5.8-1,8.2l-6.8-9C753,61.83,754.27,61.23,755.47,61.33Zm-129.8,6.8-9.8,7.4,28,37.4,9.8-7.4Zm222.6,2.3c1.2.1,2.2,1,3.5,2.8,3.2,4.2,2.2,5.8-1,8.2l-6.8-9C845.77,70.93,847.07,70.23,848.27,70.43Zm-333.4,5.1c-3.6,0-7.2,1.6-10.5,4-9.5,7.2-9,14.9,1.6,29,11.1,14.7,16.4,17.9,26.2,10.5a12.75,12.75,0,0,0,5.2-8l2.9.9,5.1-3.8-15.6-20.7-12.3,9.3,5.2,7,2.5-1.8,2.8,3.7c1.7,2.2,1.3,3.9-.2,5.1s-3.2,1-4.9-1.2l-13-17.2c-1.7-2.2-1.3-3.9.2-5s3.2-1.1,4.9,1.2l1.7,2.2,9.8-7.4c-2.3-3-3.9-4.8-5.5-5.8A10.14,10.14,0,0,0,514.87,75.53Zm203.6,1.7-9.8,7.4,28.1,37.3,9.8-7.4Zm-257.4.7v14.6l7-5.3Zm146.6,6.7a18.42,18.42,0,0,0-10.5,4c-9.5,7.2-9,14.9,1.6,29,11.1,14.7,16.4,17.9,26.2,10.5a12.75,12.75,0,0,0,5.2-8l2.9.9,5-3.8-15.6-20.7-12.3,9.3,5.2,7,2.5-1.8,2.8,3.7c1.7,2.2,1.3,3.9-.2,5.1s-3.2,1.1-4.9-1.2l-12.8-17c-1.7-2.2-1.3-3.9.2-5.1s3.2-1.1,4.9,1.2l1.6,2.2,9.8-7.5c-2.3-3-3.9-4.8-5.5-5.8a9.52,9.52,0,0,0-6.1-2Zm203.6,1.7-9.9,7.4,28.1,37.3,9.8-7.4Zm-322.6,6-21.3,16.1,28.1,37.3,21.9-16.5-6-8-12.1,9.1-5.5-7.3,9.5-7.2-6-8-9.5,7.1-4.8-6.3,11.4-8.7Zm211.9,1.4a17.66,17.66,0,0,0-10.5,4c-9.5,7.2-9,14.9,1.6,29,11.1,14.7,16.4,17.9,26.2,10.5a12.75,12.75,0,0,0,5.2-8l2.9.9,5-3.8-15.6-20.7-12.3,9.3,5.3,7,2.5-1.9,2.8,3.7c1.7,2.2,1.3,3.9-.2,5.1s-3.2,1.1-4.9-1.2l-12.8-17c-1.7-2.2-1.3-3.9.2-5s3.2-1.1,4.9,1.2l1.6,2.2,9.8-7.4c-2.3-3-3.8-4.7-5.5-5.8a10.31,10.31,0,0,0-6.2-2.1Zm-119.1,7.7-21.3,16.1,28.1,37.3,21.9-16.5-6-8-12.1,9.1-5.5-7.3,9.5-7.2-6-8-9.5,7.2-4.8-6.3,11.5-8.7Zm211.9,1.4a18.42,18.42,0,0,0-10.5,4c-9.5,7.2-9,14.9,1.6,29,11.1,14.7,16.4,17.9,26.2,10.5a12.75,12.75,0,0,0,5.2-8l2.9.9,5-3.8-15.6-20.7-12.3,9.2,5.2,7,2.5-1.9,2.8,3.7c1.7,2.2,1.3,3.9-.2,5.1s-3.2,1.1-4.9-1.2l-12.9-17c-1.7-2.2-1.3-3.9.2-5s3.2-1.1,4.9,1.2l1.6,2.2,9.8-7.4a26,26,0,0,0-5.5-5.8,9.84,9.84,0,0,0-6-2Zm-119.1,7.7L653,126.63l28.1,37.3,21.9-16.5-6-8-12.1,9.1-5.5-7.3,9.5-7.1-6-8-9.5,7.1-4.8-6.3,11.5-8.7Zm211.9,1.3c-3.6,0-7.2,1.6-10.5,4-9.5,7.2-9,14.9,1.6,29,6.7,8.9,11.4,13.5,16.1,14.1v-14.1l-12.2-16.2c-1.7-2.2-1.3-3.9.2-5.1s3.2-1.1,4.9,1.2l1.7,2.2,5.4-4.1v-8.2a9,9,0,0,0-1-.9,12.21,12.21,0,0,0-6.2-1.9Zm-423,3.6a14.77,14.77,0,0,0-2.1.1v10.7a7.18,7.18,0,0,1,2.5,2.4c3.1,4.1,2.1,5.8-1,8.2l-1.5-2v19.7l8.2,10.9,9.5-7.1-11-14.5,1.7-1.3c9-6.8,9.9-11.8,3.4-20.4C469.67,117.73,466.47,115.63,463.17,115.43Zm304,4.2-21.3,16.1L774,173l21.9-16.5-6-8-12.1,9.1-5.5-7.3,9.5-7.2-6-8-9.5,7.1-4.8-6.3,11.5-8.7ZM556,124.43c-3.4-.2-6.9,1.4-10.9,4.4l-11.1,8.4,28.1,37.3,9.5-7.2-11-14.5,1.7-1.3c9-6.8,9.9-11.8,3.4-20.4-3.1-4.4-6.3-6.4-9.7-6.7Zm304,4.3-21.3,16.1,28.1,37.3,21.9-16.5-6-8-12.1,9.1-5.5-7.3,9.5-7.1-6-8-9.5,7.1-4.8-6.3,11.5-8.6Zm33.5.8-4.7,3.5,4.7,6.2Zm-244.6,4c-3.4-.2-6.9,1.4-10.9,4.4l-11.1,8.3,28.1,37.3,9.5-7.2-11-14.5,1.7-1.3c9-6.8,9.9-11.8,3.4-20.4-3.2-4.3-6.4-6.3-9.7-6.6Zm-95.9,1.4c1.2.1,2.2,1,3.5,2.8,3.1,4.1,2.2,5.8-1,8.2l-6.8-9c1.8-1.5,3.1-2.2,4.3-2Zm188.7,7.7c-3.4-.2-6.9,1.4-10.9,4.4l-11.1,8.3,28.1,37.3,9.5-7.2-11-14.5,1.7-1.3c9-6.8,10-11.8,3.4-20.4-3.1-4.3-6.3-6.4-9.7-6.6Zm-95.9,1.3c1.2.1,2.2,1.1,3.5,2.8,3.1,4.1,2.2,5.8-1,8.2l-6.8-9c1.8-1.4,3.1-2.1,4.3-2ZM516,150.83l-9.9,7.4,28.1,37.3,9.8-7.4Zm318.6.9c-3.4-.2-6.9,1.4-10.9,4.4l-11.1,8.4,28.1,37.3,9.5-7.2-11-14.5,1.7-1.3c9-6.8,9.9-11.8,3.5-20.4-3.3-4.4-6.5-6.5-9.8-6.7Zm-96,1.3c1.2.1,2.2,1,3.5,2.8,3.1,4.1,2.2,5.8-1,8.2l-6.8-9c1.8-1.4,3.2-2.1,4.3-2Zm-129.8,6.9-9.8,7.4,28.1,37.3,9.8-7.4Zm222.7,2.2c1.2.1,2.2,1,3.5,2.8,3.1,4.1,2.2,5.8-1,8.2l-6.8-9C829,162.73,830.27,162,831.47,162.13ZM498,167.23c-3.6,0-7.2,1.6-10.5,4-9.5,7.1-9,14.9,1.6,29,11.1,14.7,16.4,17.9,26.2,10.5a13.32,13.32,0,0,0,5.3-8l2.9.9,5-3.8-15.6-20.7-12.3,9.3,5.2,6.9,2.5-1.8,2.8,3.7c1.7,2.2,1.3,3.9-.2,5.1s-3.2,1.1-4.9-1.2l-12.8-17c-1.7-2.2-1.3-3.9.2-5s3.2-1.1,4.9,1.2l1.6,2.2,9.8-7.4c-2.3-3-3.9-4.8-5.5-5.8A10.09,10.09,0,0,0,498,167.23Zm203.6,1.7-9.8,7.4,28.1,37.3,9.8-7.4Zm-110.7,7.4c-3.6,0-7.2,1.6-10.5,4-9.5,7.2-9,14.9,1.6,29,11.1,14.7,16.4,17.9,26.2,10.5a12.75,12.75,0,0,0,5.2-8l2.9.9,5-3.8-15.6-20.7-12.3,9.3,5.2,6.9,2.5-1.9,2.8,3.7c1.7,2.2,1.3,3.9-.2,5.1s-3.2,1-4.9-1.2l-12.8-17c-1.7-2.2-1.3-3.9.2-5.1s3.2-1.1,4.9,1.2l1.7,2.2,9.8-7.4c-2.3-3-3.8-4.8-5.5-5.8a11.58,11.58,0,0,0-6.2-1.9Zm203.6,1.8-9.9,7.4,28.1,37.3,9.8-7.4Zm-322.7,6-10.7,8.1v22.1l17.5,23.2,21.9-16.5-6-8-12.1,9.1-5.5-7.3,9.5-7.2-6-8-9.5,7.2-4.8-6.4,11.5-8.7Zm211.9,1.3a17.9,17.9,0,0,0-10.5,4c-9.5,7.1-9,14.9,1.6,29,11.1,14.7,16.4,17.9,26.2,10.5a12.75,12.75,0,0,0,5.2-8l2.9.9,5-3.8-15.6-20.7-12.3,9.3,5.2,7,2.5-1.9,2.8,3.7c1.7,2.2,1.3,3.9-.2,5.1s-3.2,1.1-4.9-1.2l-12.8-17c-1.7-2.2-1.3-3.9.2-5.1s3.2-1.1,4.9,1.2l1.7,2.2,9.8-7.4c-2.3-3-3.9-4.8-5.5-5.8A10.66,10.66,0,0,0,683.67,185.43Zm203.6,1.8-9.8,7.4,16,21.3v-20.5Zm-322.7,6-21.3,16,28.2,37.3,21.9-16.5-6-8-12.1,9.1-5.5-7.3,9.5-7.1-6-8-9.5,7.1-4.8-6.3,11.5-8.7Zm211.9,1.4a18.42,18.42,0,0,0-10.5,4c-9.5,7.1-9,14.9,1.6,29,11.1,14.7,16.4,17.9,26.2,10.5a12.75,12.75,0,0,0,5.2-8l2.9.9,5-3.8-15.6-20.7-12.3,9.3,5.2,7,2.5-1.9,2.8,3.7c1.7,2.2,1.3,3.9-.2,5.1s-3.2,1.1-4.9-1.2l-12.8-17.1c-1.7-2.2-1.3-3.9.2-5s3.2-1.1,4.9,1.2l1.7,2.2,9.8-7.4c-2.3-3-3.9-4.8-5.5-5.8a10.66,10.66,0,0,0-6.2-2Zm-119,7.6-21.3,16.1,28.1,37.3,21.9-16.5-6.1-8-12,9.1-5.5-7.3,9.5-7.1-6-8-9.5,7.1-4.8-6.3,11.5-8.6Zm211.9,1.4a18.42,18.42,0,0,0-10.5,4c-9.5,7.1-9,14.9,1.6,29,11.1,14.7,16.4,17.9,26.2,10.5a13.32,13.32,0,0,0,5.3-8l1.6.5v-11.8l-9.2-12.3-12.3,9.3,5.3,7,2.4-1.9,2.8,3.7c1.7,2.2,1.3,3.9-.2,5.1s-3.2,1.1-4.9-1.2l-12.8-17c-1.7-2.2-1.3-3.9.2-5.1s3.2-1.1,4.9,1.2l1.7,2.2,9.8-7.4c-2.3-3-3.8-4.8-5.5-5.8a12,12,0,0,0-6.4-2Zm-119,7.7L729,227.43l28.1,37.3,21.9-16.5-6-8-12.1,9.1-5.4-7.3,9.5-7.1-6-8-9.5,7.1-4.8-6.3,11.5-8.6Zm-211.2,4.9c-3.4-.2-6.9,1.4-10.9,4.4l-11.1,8.4,28.1,37.3,9.5-7.2-11-14.5,1.7-1.3c9-6.8,9.9-11.8,3.4-20.4C545.67,218.53,542.47,216.43,539.17,216.23Zm304,4.3-21.3,16.1,28.1,37.3,21.9-16.5-6-8-12.1,9.1-5.5-7.3,9.5-7.1-6-8-9.5,7.1-4.8-6.4,11.5-8.6ZM632,225.33c-3.4-.2-6.9,1.4-10.9,4.4L610,238l28.1,37.3,9.5-7.1-11-14.5,1.7-1.3c9-6.8,10-11.8,3.5-20.4-3.2-4.4-6.4-6.5-9.8-6.7Zm-95.9,1.3c1.2.1,2.2,1,3.5,2.8,3.1,4.1,2.2,5.8-1,8.2l-6.8-9.1c1.8-1.4,3.1-2,4.3-1.9Zm188.8,7.8c-3.4-.2-6.9,1.4-10.9,4.4l-11.1,8.4,28.1,37.3,9.5-7.2-11-14.5,1.7-1.3c9-6.8,9.9-11.8,3.4-20.4-3.2-4.4-6.4-6.5-9.7-6.7Zm-96,1.3c1.2.1,2.2,1,3.5,2.8,3.1,4.1,2.2,5.8-1,8.2l-6.8-9c1.9-1.5,3.2-2.1,4.3-2Zm-129.8,6.9-9.9,7.4,28.1,37.3,9.8-7.4Zm318.6.9c-3.4-.2-6.9,1.4-10.9,4.4l-11.1,8.3,28.1,37.3,9.5-7.1-11-14.5,1.7-1.3c9-6.8,10-11.8,3.5-20.4-3.3-4.5-6.5-6.5-9.8-6.7Zm-95.9,1.3c1.2.1,2.2,1,3.5,2.8,3.1,4.1,2.2,5.8-1,8.2l-6.8-9c1.8-1.5,3.1-2.2,4.3-2Zm-260.7,4v1.8l.9-.7Zm130.9,2.9-9.8,7.4,28.1,37.3,9.8-7.4Zm222.6,2.2c1.2.1,2.2,1,3.5,2.8,3.2,4.1,2.2,5.8-1,8.2l-6.8-9c1.8-1.5,3.1-2.2,4.3-2ZM481.17,259a17.66,17.66,0,0,0-10.5,4c-9.5,7.2-9,14.9,1.6,29,11.1,14.7,16.4,17.9,26.2,10.5a12.75,12.75,0,0,0,5.2-8l2.9.9,5-3.8L496,270.93l-12.3,9.3,5.2,7,2.5-2,2.8,3.7c1.7,2.2,1.3,3.9-.2,5.1s-3.3,1-4.9-1.2l-12.8-17.1c-1.7-2.2-1.3-3.9.2-5s3.2-1,4.9,1.2l1.6,2.2,9.9-7.4c-2.3-3-3.9-4.8-5.5-5.8a10.56,10.56,0,0,0-6.2-1.9Zm203.6,1.8-9.8,7.4,28.1,37.3,9.8-7.4Zm208.7.8-4.9,3.7,4.9,6.5ZM574,268.13a18.16,18.16,0,0,0-10.5,4c-9.5,7.1-9,14.9,1.6,29,11.1,14.7,16.4,17.9,26.2,10.5a12.75,12.75,0,0,0,5.2-8l2.9.9,5-3.8-15.5-20.8-12.3,9.3,5.2,7,2.5-1.8,2.8,3.7c1.7,2.2,1.3,3.9-.2,5.1s-3.2,1.1-4.9-1.2l-12.8-17c-1.7-2.2-1.3-3.9.2-5s3.2-1.1,4.9,1.2l1.7,2.2,9.8-7.4c-2.3-3-3.8-4.8-5.5-5.8a10.59,10.59,0,0,0-6.3-2.1Zm203.6,1.7-9.9,7.4,28.1,37.3,9.8-7.4Zm-110.7,7.4a17.66,17.66,0,0,0-10.5,4c-9.5,7.2-9,14.9,1.6,29,11.1,14.7,16.4,17.9,26.2,10.5a12.75,12.75,0,0,0,5.2-8l2.9.9,5-3.8-15.6-20.7-12.3,9.3,5.2,7,2.5-1.8,2.8,3.7c1.7,2.2,1.3,3.9-.2,5.1s-3.2,1-4.9-1.2l-12.8-17c-1.7-2.2-1.3-3.9.2-5s3.2-1.1,4.9,1.2l1.7,2,9.9-7.4c-2.3-3-3.9-4.8-5.5-5.8A10.7,10.7,0,0,0,666.87,277.23Zm203.6,1.7-9.8,7.4,28.1,37.3,4.8-3.6v-10.6Zm-322.7,6L526.47,301l28.1,37.3,21.9-16.5-6-8-12.1,9.1-5.5-7.3,9.5-7.1-6-8-9.5,7.2-4.8-6.3,11.5-8.7Zm211.9,1.4a17.66,17.66,0,0,0-10.5,4c-9.5,7.2-9,14.9,1.6,29,11.1,14.7,16.4,17.9,26.2,10.5a12.75,12.75,0,0,0,5.2-8l2.9.9,5-3.8-15.6-20.7-12.3,9.3,5.2,7,2.5-1.9,2.8,3.7c1.7,2.2,1.3,3.9-.2,5.1s-3.2,1.1-4.9-1.2l-12.9-17c-1.7-2.2-1.3-3.9.2-5s3.2-1.1,4.9,1.2l1.6,2.2,9.8-7.4c-2.3-3-3.8-4.7-5.5-5.8a8.82,8.82,0,0,0-6-2.1Zm-296.1,5.1-2.5,1.9v12.5l8.5-6.4Zm177.1,2.6-21.3,16.1,28.1,37.3,21.9-16.5-6-8-12.1,9.1-5.5-7.3,9.5-7.2-6-8-9.5,7.2-4.8-6.4,11.5-8.6Zm211.8,1.4a18.42,18.42,0,0,0-10.5,4c-9.5,7.1-9,14.9,1.6,29,11.1,14.7,16.4,17.9,26.2,10.5a12.75,12.75,0,0,0,5.2-8l2.9.9,5-3.8-15.5-20.8-12.3,9.3,5.2,7,2.5-1.9,2.8,3.7c1.7,2.2,1.3,3.9-.2,5.1s-3.2,1.1-4.9-1.2l-12.8-17c-1.7-2.2-1.3-3.9.2-5.1s3.2-1.1,4.9,1.2l1.6,2.2,9.9-7.4c-2.3-3-3.9-4.8-5.5-5.8A11.09,11.09,0,0,0,852.47,295.43Zm-119,7.7-21.3,16.1,28.1,37.3,21.9-16.5-6-8-12.1,9.1-5.5-7.3,9.5-7.2-6-8-9.5,7.1-4.8-6.3,11.5-8.6Zm-255.9,1.6-12.1,9.1-4.5-5.9v20.5l.6.9,21.9-16.5Zm44.7,3.2c-3.4-.2-6.9,1.4-10.9,4.4l-11.1,8.4,28.1,37.3,9.5-7.1-11-14.5,1.7-1.3c9-6.8,9.9-11.8,3.4-20.4-3.1-4.5-6.3-6.5-9.7-6.8Zm304,4.3-21.4,16,28.1,37.3,21.9-16.5-6-8-12.1,9.1-5.5-7.3,9.5-7.1-6-8-9.5,7.1-4.8-6.3,11.5-8.6ZM615.17,317c-3.4-.2-6.9,1.4-10.9,4.4l-11.1,8.3,28.1,37.3,9.5-7.2-11-14.5,1.7-1.3c9-6.8,9.9-11.8,3.5-20.4-3.3-4.3-6.5-6.3-9.8-6.6Zm-95.9,1.3c1.2.1,2.2,1,3.5,2.8,3.1,4.1,2.2,5.8-1,8.2l-6.8-9c1.8-1.4,3.1-2.1,4.3-2Zm188.7,7.8c-3.4-.2-6.9,1.4-10.9,4.4l-11.1,8.4,21.5,28.4h14.9l-9.7-12.8,1.7-1.3c9-6.8,10-11.8,3.5-20.4C714.47,328.43,711.37,326.33,708,326.13Zm-95.9,1.3c1.2.1,2.2,1,3.5,2.8,3.1,4.1,2.2,5.8-1,8.2l-6.8-9c1.8-1.4,3.1-2.1,4.3-2Zm-129.8,6.9-9.9,7.4,19.3,25.6h15.4Zm318.5.9c-3.4-.2-6.9,1.4-10.9,4.4l-11.1,8.4,14.6,19.4h14.9l-2.9-3.7,1.7-1.3c9-6.8,9.9-11.8,3.4-20.4-3.1-4.5-6.3-6.6-9.7-6.8Zm-95.9,1.3c1.2.1,2.2,1,3.5,2.8,3.1,4.1,2.2,5.8-1,8.2l-6.8-9c1.9-1.4,3.1-2.1,4.3-2Zm188.6,4.7a39.92,39.92,0,0,0-4.4,2.7l-11.1,8.3,11.3,15h4.1v-14.3l-.8-1.1c.3-.2.5-.3.8-.5v-10.1Zm-318.4,2.2-9.9,7.4,12.4,16.5H593Zm222.6,2.2c1.2.1,2.2,1,3.5,2.8,3.2,4.1,2.2,5.8-1,8.2l-6.8-9c1.9-1.5,3.2-2.1,4.3-2Zm-333.4,5.2a11.27,11.27,0,0,0-3.2.5v10.6c1.1-.2,2.3.3,3.4,1.8l1.6,2.2,9.9-7.4a26,26,0,0,0-5.5-5.8,9.9,9.9,0,0,0-6.2-1.9Zm203.6,1.7-9.8,7.4,5.5,7.4H679Zm-110.7,7.4a18.16,18.16,0,0,0-10.5,4,29,29,0,0,0-3.6,3.4h25.7c-2.2-2.9-3.7-4.6-5.3-5.6a11.21,11.21,0,0,0-6.3-1.8Zm203.6,1.7-7.6,5.7h11.9Zm-281.6,1-6.2,4.7h9.7Zm380.8,3.2-1.9,1.4h3Z" transform="translate(0 -3.62)"/><g id="shockwave"><path class="cls-4" d="M516,4.13l10.8,19.5-65.7,46.3v34.6l65.4,46.1-53.1,83.6,108.7,38.5-6.6,103.5,94.8-31.5,75.8,91.9h5.6l51.8-69.8,90,51.8v-57.5l-7.1,16.5-84.7-46.2L749,405.33,697.07,313l-92.8,27,5.7-101.3-95.3-22.8,47-85.6-79-42.8,91.9-55.7L555,4.13Z" transform="translate(0 -3.62)"/><path class="cls-2" d="M547.87,4.13l18.2,25.7-95.2,57.7,8.9,4.8,73.8,40-47.7,87.2,98,23.4L598,347.63l96.2-28,54.1,96.3,55.1-77.1,85.7,46.8,4.3-10v-29.4l-9.9,23-83.6-45.6-50.4,70.6-49.6-88.4-89.3,26,5.5-98-92.6-22.1,46.1-84-75.3-40.8,88.5-53.7-20.7-29.1Z" transform="translate(0 -3.62)"/></g><g id="fist"><path class="cls-2" d="M607.47,417.33s38.2-48.6,46.4-58.1,12.6-14.9,12.6-14.9,58.1-6.8,100.8-34.5,84.2-93,84.7-105.6-7.2-29.3-16.6-34.2a97.2,97.2,0,0,0-14.3-6.6s8.2-10.3-.1-27.4-12.6-18.4-23.6-20.6l-11-2.2s8.2-8.3-4.4-23.2-26.3-20.9-31.8-19.8l-5.5,1.1s-6.6-6.6-22.5-18.1-25.3-14.4-32.9-9.9-29.4,22.1-49.1,24.4-51.5,22.2-60.2,45.4-22.9,67.5-25,93.9-7.6,37.6-13,43.1-65.2,49-70.6,57.9,0,119.8,0,119.8l128.3-.1Z" transform="translate(0 -3.62)"/><path class="cls-4" d="M836.67,213.53c-4.6,2.3-13.7,13.7-18.2,17.2s-29.7,30.9-29.7,30.9-6.3,13.1-17.7,6.3-13.1-10.8-10.3-20.6,15.4-24.6,25.1-36.6,22.8-22.9,29.1-26.9a52.61,52.61,0,0,1,12.5-5.8s14.8,8.6,17.1,15.4-3.4,17.8-7.9,20.1m-124.7-42s-6.8,12.6-21.1,1.8-12.6-11.4-7.5-20,10.3-12.6,10.3-12.6a31.67,31.67,0,0,0,8,13.7,69.88,69.88,0,0,0,13.8,10.3Zm65-63a26.17,26.17,0,0,1-12.1,13.9,20.7,20.7,0,0,1-4.7,1.8l-2.4-2.6c-.4-.3-14.9-11.8-14.9-11.8l-12.6-11.5c3.8-5.6,9.2-13.1,12.4-14.9a48.67,48.67,0,0,0,7.6-5.2s1.9-4.6,16.2,6.2,11.7,20.6,10.5,24.1m-59.9-24.9s-11.6-7.6-23.2-11.5-10-7-10-7,5.4-13.1,10-14.7,17.8,0,26.3,8.5,7.7,8.5,6.2,13.9-9.3,10.8-9.3,10.8m122.4,87a105.07,105.07,0,0,0-14.9-6.8s8.5-10.6-.1-28.3-13.2-19.1-24.6-21.4l-11.4-2.3s8.5-8.6-4.6-24-27.5-21.7-33.2-20.5l-5.7,1.2s-6.9-6.8-23.5-18.8-26.3-14.8-34.3-10.2-30.9,22.9-51.4,25.3-53.7,22.9-62.8,47-23.8,69.8-26.1,97.2-7.9,38.9-13.6,44.6-56.6,39.8-62.3,49c-2.8,4.5-3.8,34.6-4.1,63.8,41.8-28,94.9-64,99-68.8a78.69,78.69,0,0,0,10.2-14.9s-10.3-6.9-13.8-19.5a23.81,23.81,0,0,1,4-21.1s-2.3-16,.5-31.4,7.9-40,9-43.5,13.1-34.9,18.2-48.1,18.2-24,29.1-30.3,26.3-8.1,41.7-12.1,39.4,6.2,48.1,14.8a44.33,44.33,0,0,0,13.5,9.2l13.3,12,15.2,12,.1.1h-.5c2.2,2.2,4.2,4.4,6,6.4,3.6,4.5,6.3,8.7,6.1,10.6l.7,7.5,3.6-7.2a21.81,21.81,0,0,0-1.6-4.5,42.91,42.91,0,0,1,3.6-4.8c8-9.1,13.1-14.3,13.1-14.3s17.1,3,25.1,14.4,3.9,14.7,3.9,14.7-14,19.8-20.9,25.5-26.2,27.9-26.2,27.9-14.7,21.6-27.9,17.6-20.6-16-13.8-26.2,13.1-20,13.1-20,21-2.2,25.6-11.3c2-4,1.9-6.4,1.2-8a52.69,52.69,0,0,1-5.7,4.9c-5.7,4.6-10.3,0-29.1-13.1s-29.8-34.2-29.8-34.2-2.3,1.1-16.5,6.3-33.2-6.7-33.2-6.7l-5.1,5.1c-5.2,5.1-18.3,0-18.3,0s-1.7,7.4-7.4,22.3c-1.5,4-2.5,6.3-3,7.6l8.2,13.6c8.6,14.2,2.9,45.1,2.9,45.1s12.4,1.6,20.4,7.3a8,8,0,0,1,1.7,1.5,74.08,74.08,0,0,1,.7,10.5,96.89,96.89,0,0,1-1.6,17,191.08,191.08,0,0,1-7,28,43,43,0,0,1-2.9,7l5.5,3.4c.3-.5,5.6-9.1,10.8-37.2a101,101,0,0,0,1.7-18.2,71.05,71.05,0,0,0-2.1-17.8,47.5,47.5,0,0,1,15.7-10.1,215.46,215.46,0,0,1,21.2,5.1c14.3,4,46.3,33.6,50.4,42.2s-5.2,9.7-13.7,10.3-18.8,25.8-8,34.3-1.2,20.9-3.4,24.4-9.5,3.5-18.5,9.3-83.5,9.3-83.5,9.3,14.8,25.3,5.7,43.6c-4.5,9-34,33.5-63.1,56.2l39.2,2.1,3.4-5.7s39.8-50.4,48.4-60.1,13.1-15.4,13.1-15.4,60.6-7,105.1-35.7,87.8-96.2,88.4-109.3-7.5-30.3-17.2-35.4" transform="translate(0 -3.62)"/></g><path id="border" class="cls-2" d="M884.77,427.83H469.67V12.73h415.1Zm-423.7,8.7h432.4V4.13H461.07Z" transform="translate(0 -3.62)"/><rect id="label_background" data-name="label background" class="cls-2" x="461.07" y="363.71" width="429.7" height="69.2"/><path id="TM" class="cls-4" d="M876.17,46.23h-4V26.73h-.1l-6.9,19.6h-3.3l-6.5-19.6h-.1v19.6h-4V21.43h6.4l6.2,18.5h.1l6-18.5h6.2Zm-27.9-24.8v3.2h-6.8v21.6h-4V24.63h-6.8v-3.2Z" transform="translate(0 -3.62)"/><g id="VIOLENCE"><path class="cls-4" d="M581,377.63h10.1l-8.5,46.6h-10.8l-9.9-46.6h10.4l4.5,26.9h.1Z" transform="translate(0 -3.62)"/><path class="cls-4" d="M594.37,377.63h10.9v46.6h-10.9Z" transform="translate(0 -3.62)"/><path class="cls-4" d="M644,424.23v-46.6h10.9v36.6h14v10Z" transform="translate(0 -3.62)"/><path class="cls-4" d="M672.77,424.23v-46.6h23.7v9.6h-12.8v7.9h10.5v10h-10.5v9.1h13.4v10Z" transform="translate(0 -3.62)"/><path class="cls-4" d="M622.17,411.53c0,2.8,1.2,3.9,2.9,3.9s2.8-1.1,2.8-3.9v-21.2c0-2.8-1.2-3.9-2.8-3.9s-2.9,1.1-2.9,3.9Zm-10.7-24.3c1.6-7.5,6.6-10.4,13.6-10.4s12,2.9,13.6,10.4c.5,2.4.7,6.6.7,13.7s-.2,11.3-.7,13.7c-1.5,7.5-6.6,10.4-13.6,10.4s-12-2.9-13.6-10.4c-.5-2.4-.7-6.5-.7-13.7s.2-11.3.7-13.7" transform="translate(0 -3.62)"/><path class="cls-4" d="M701.57,424.23v-46.6h10.5l7.1,20.6h.1v-20.6h9.3v46.6h-10.1l-7.4-24.2h-.2v24.2Z" transform="translate(0 -3.62)"/><path class="cls-4" d="M744.47,411.53c0,2.8,1.2,3.9,2.8,3.9s3-1.1,3-3.9v-8.2h10.9a70.8,70.8,0,0,1-.8,12.2c-1.4,6.7-7,9.5-13.5,9.5-11,0-14.3-6.7-14.3-24.1s3.2-24.1,14.3-24.1c6.4,0,11.8,2.7,13.5,9.2a59.71,59.71,0,0,1,.8,11.2h-10.9v-6.9c0-2.8-1.3-3.9-3-3.9s-2.8,1.1-2.8,3.9Z" transform="translate(0 -3.62)"/><path class="cls-4" d="M766.47,424.23v-46.6h23.6v9.6h-12.8v7.9h10.6v10h-10.5v9.1h13.4v10Z" transform="translate(0 -3.62)"/></g><g class="cls-5"><rect class="cls-6" width="425.72" height="425.72"/></g><g class="cls-5"><path class="cls-2" d="M149.87,368.88H83.46V138.13H40V99c29.81.42,49.39-11.93,60-40.87h49.81Z" transform="translate(0 -3.62)"/></g><g class="cls-5"><path class="cls-2" d="M376.35,305.86v63H213.72v-66C287.79,202,311.64,185,311.64,146.22c0-15.75-6-25.12-17.46-25.12-15.75,0-19.16,12.34-19.16,26.4v18.3H212.86V145.37c0-48.11,23.41-87.28,81.32-87.28,55.35,0,85.57,34.91,85.57,90.69,0,66.41-56.19,109.83-94.51,157.08Z" transform="translate(0 -3.62)"/></g><g class="cls-5"><path d="M0,523H425.72V3.62H0m417.2,417.2H8.52V12.13H417.21Z" transform="translate(0 -3.62)"/></g><g class="cls-5"><path d="M381.26,20.66v3.15h-6.73V45.14h-4V23.81h-6.73V20.66ZM408.7,45.14h-4V25.86h-.12l-6.78,19.28H394.6l-6.44-19.28h-.11V45.14h-4V20.66h6.29l6.1,18.21h.12l5.93-18.21h6.18V45.14Z" transform="translate(0 -3.62)"/></g><g class="cls-5"><polygon class="cls-2" points="27.04 487.45 34.27 487.45 40.9 455.17 41.05 455.17 47.98 487.45 54.76 487.45 64.12 447.93 57.64 447.93 51.52 480.25 51.37 480.25 44.81 447.93 37.52 447.93 30.8 480.25 30.65 480.25 24.31 447.93 17.82 447.93 27.04 487.45"/></g><g class="cls-5"><polygon class="cls-2" points="74.84 487.45 82.06 487.45 88.7 455.17 88.86 455.17 95.79 487.45 102.55 487.45 111.93 447.93 105.44 447.93 99.32 480.25 99.16 480.25 92.6 447.93 85.3 447.93 78.6 480.25 78.45 480.25 72.11 447.93 65.62 447.93 74.84 487.45"/></g><g class="cls-5"><polygon class="cls-2" points="122.63 487.45 129.85 487.45 136.49 455.17 136.64 455.17 143.58 487.45 150.36 487.45 159.72 447.93 153.24 447.93 147.12 480.25 146.97 480.25 140.4 447.93 133.1 447.93 126.39 480.25 126.25 480.25 119.91 447.93 113.41 447.93 122.63 487.45"/></g><g class="cls-5"><rect class="cls-2" x="163.21" y="479.65" width="6.77" height="7.8"/></g><g class="cls-5"><path class="cls-7" d="M185.33,471.33c0-9,1.1-15.49,8-15.49,5.75,0,7.22,6.06,7.22,14.74,0,10.18-1.47,16.22-7.22,16.22-6.64,0-8-7.81-8-15.47m-5.83,32.73h6.19V486.59h.16a9,9,0,0,0,8.26,5.52c10.24,0,12.9-12.54,12.9-21.53,0-11.71-3.53-20.05-12.9-20.05-4.28,0-7.74,3-8.56,5.9h-.14v-4.88h-5.9v52.51Z" transform="translate(0 -3.62)"/></g><g class="cls-5"><path class="cls-7" d="M219,467.19v-1.48c0-2.34.73-10.31,7.22-10.31,5.47,0,6.87,5.22,6.87,9.65v2.14Zm20.57,4.87v-2.5c0-8.49-1.11-19-13.2-19S212.32,462,212.32,471.85c0,13.56,4.06,20.26,13.73,20.26,10.76,0,13.26-9.8,13.26-14h-6.18c0,2.94-.83,9.14-6.72,9.14-7.59,0-7.59-9.14-7.59-15.19Z" transform="translate(0 -3.62)"/></g><g class="cls-5"><path class="cls-7" d="M258.63,455.84c6.64,0,8,7.81,8,15.49,0,8.09-1.32,14.45-8,14.45-6.17,0-7.14-8-7.14-14.45,0-9.43,1.47-15.49,7.22-15.49m13.78-4.29h-5.88v5h-.16c-.8-3.11-4.27-6.06-8.55-6.06-10,0-12.89,10.1-12.89,20.8,0,5.23.73,19.75,12.23,19.75,3.9,0,7.58-2,8.93-5.3h.15v5.16c0,2.73.29,8.84-7.69,8.84-3.24,0-6-1.4-6.33-5H246c1,9.87,10.55,9.87,13,9.87,8,0,13.42-4.27,13.42-16.07v-37Z" transform="translate(0 -3.62)"/></g><g class="cls-5"><path class="cls-7" d="M280.93,491.08h6.18V451.56h-6.18Zm0-45.56h6.18v-7.09h-6.18Z" transform="translate(0 -3.62)"/></g><g class="cls-5"><rect class="cls-2" x="296.97" y="479.65" width="6.79" height="7.8"/></g><g class="cls-5"><path class="cls-7" d="M313.65,491.08h6.21V451.56h-6.21Zm0-45.56h6.21v-7.09h-6.21Z" transform="translate(0 -3.62)"/></g><g class="cls-5"><path class="cls-2" d="M328.32,491.08h6.18V463.8a7.63,7.63,0,0,1,7.84-8c5.59,0,5.81,4.94,5.81,8v27.28h6.19v-28c0-4.63,0-12.53-10.39-12.53-3.83,0-8,2.07-9.58,5.69h-.16v-4.67h-5.89v39.53Z" transform="translate(0 -3.62)"/></g><g class="cls-5"><path class="cls-2" d="M364.31,491.08h6.21V456.43h6.77v-4.88h-6.77v-4.63c0-2.73,1.33-3.76,4-3.76h2.87v-5.31h-4.5c-6,0-8.56,3.1-8.56,9.07v4.63h-5.74v4.88h5.74Z" transform="translate(0 -3.62)"/></g><g class="cls-5"><path class="cls-7" d="M379.64,471.33c0,11.12,2.82,20.78,14.24,20.78s14.22-9.66,14.22-20.78-2.8-20.8-14.22-20.8-14.24,9.65-14.24,20.8m14.08,15.93c-6.34,0-7.57-7.4-7.57-15.93s1.32-15.93,7.57-15.93c6.65,0,7.91,7.36,7.91,15.93s-1.33,15.93-7.91,15.93" transform="translate(0 -3.62)"/></g></g></g></svg>